# AST/ASF file generated using VICON BodyLanguage
# -----------------------------------------------
:version 1.10
:name VICON
:units
  mass 1.0
  length 0.45
  angle deg
:documentation
   .ast/.asf automatically generated from VICON data using
   VICON BodyBuilder and BodyLanguage model FoxedUp or BRILLIANT.MOD
:root
   order TX TY TZ RX RY RZ
   axis XYZ
   position 0 0 0  
   orientation 0 0 0 
:bonedata
  begin
     id 1 
     name lhipjoint
     direction 0.646657 -0.683706 0.338203 
     length 2.4948 
     axis 0 0 0  XYZ
  end
  begin
     id 2 
     name lfemur
     direction 0.34202 -0.939693 0  
     length 6.79491  
     axis 0 0 20  XYZ
    dof rx ry rz
    limits (-160.0 20.0)
           (-70.0 70.0)
           (-60.0 70.0)
  end
  begin
     id 3 
     name ltibia
     direction 0.34202 -0.939693 0   
     length 7.56807   
     axis 0 0 20   XYZ
    dof rx
    limits (-10.0 170.0)
  end
  begin
     id 4 
     name lfoot
     direction 0.0679796 -0.186772 0.980048   
     length 2.53018   
     axis -90 7.62852e-016 20   XYZ
    dof rx rz
    limits (-45.0 90.0)
           (-70.0 20.0)
  end
  begin
     id 5 
     name ltoes
     direction 1.53625e-011 -4.21881e-011 1   
     length 1.26912   
     axis -90 7.62852e-016 20   XYZ
    dof rx
    limits (-90.0 20.0)
  end
  begin
     id 6 
     name rhipjoint
     direction -0.618868 -0.704065 0.348274   
     length 2.42265  
     axis 0 0 0  XYZ 
  end
  begin
     id 7 
     name rfemur
     direction -0.34202 -0.939693 0   
     length 6.73814   
     axis 0 0 -20   XYZ
    dof rx ry rz
    limits (-160.0 20.0)
           (-70.0 70.0)
           (-70.0 60.0)
  end
  begin
     id 8 
     name rtibia
     direction -0.34202 -0.939693 0   
     length 7.66799   
     axis 0 0 -20   XYZ
    dof rx
    limits (-10.0 170.0)
 end
 begin
     id 9 
     name rfoot
     direction -0.0727352 -0.199838 0.977125   
     length 2.57224  
     axis -90 -7.62852e-016 -20   XYZ
    dof rx rz
    limits (-45.0 90.0)
           (-20.0 70.0)
  end
  begin
     id 10 
     name rtoes
     direction -1.53501e-011 -4.21858e-011 1   
     length 1.28858   
     axis -90 -7.62852e-016 -20   XYZ
    dof rx
    limits (-90.0 20.0)
  end
  begin
     id 11 
     name lowerback
     direction -0.0172471 0.995767 -0.0902851   
     length 2.20206   
     axis 0 0 0   XYZ
    dof rx ry rz
    limits (-20.0 45.0)
           (-30.0 30.0)
           (-30.0 30.0)
  end
  begin
     id 12 
     name upperback
     direction -0.000110737 0.999714 0.0239043   
     length 2.19523   
     axis 0 0 0   XYZ
    dof rx ry rz
    limits (-20.0 45.0)
           (-30.0 30.0)
           (-30.0 30.0)
  end
  begin
     id 13 
     name thorax
     direction 0.00704869 0.997783 0.0661741   
     length 2.21977   
     axis 0 0 0   XYZ
    dof rx ry rz
    limits (-20.0 45.0)
           (-30.0 30.0)
           (-30.0 30.0)
  end
  begin
     id 14 
     name lowerneck
     direction -0.00407501 0.995527 0.0943846   
     length 1.83142   
     axis 0 0 0   XYZ
    dof rx ry rz
    limits (-20.0 45.0)
           (-30.0 30.0)
           (-30.0 30.0)
  end
  begin
     id 15 
     name upperneck
     direction 0.0640586 0.986486 -0.150807   
     length 1.84616   
     axis 0 0 0   XYZ
    dof rx ry rz
    limits (-20.0 45.0)
           (-30.0 30.0)
           (-30.0 30.0)
  end
  begin
     id 16
     name head
     direction 0.0188017 0.99791 -0.0618239  
     length 1.85932  
     axis 0 0 0   XYZ
    dof rx ry rz
    limits (-20.0 45.0)
           (-30.0 30.0)
           (-30.0 30.0)
  end
  begin
     id 17 
     name lclavicle
     direction 0.976074 0.206905 0.066852  
     length 3.81043  
     axis 0 0 0   XYZ
    dof ry rz
    limits (-20.0 10.0)
           (0.0 20.0)
  end
  begin
     id 18 
     name lhumerus
     direction 1 -4.48971e-011 1.86916e-027   
     length 5.37587   
     axis 180 -30 -90   XYZ
    dof rx ry rz
    limits (-60.0 90.0)
           (-90.0 90.0)
           (-90.0 90.0)
  end
  begin
     id 19
     name lradius
     direction 1 -4.48968e-011 1.69187e-027   
     length 3.35977   
     axis 180 -30 -90   XYZ
    dof rx
    limits (-10.0 170.0)
  end
  begin
     id 20
     name lwrist
     direction 1 -4.48968e-011 5.8978e-027   
     length 1.67988   
     axis -3.27506e-015 90 90   XYZ
    dof ry
    limits (-180.0 0.0)
 end
  begin
     id 21 
     name lhand
     direction 1 -4.49028e-011 1.18071e-026   
     length 0.561859   
     axis -7.52654e-015 90 90   XYZ
    dof rx rz
    limits (-90.0 90.0)
           (-45.0 45.0)
  end
  begin
     id 22 
     name lfingers
     direction 1 -4.48927e-011 2.35758e-026   
     length 0.452985   
     axis -1.50534e-014 90 90   XYZ
    dof rx
    limits (0.0 90.0)
  end
  begin
     id 23
     name lthumb
     direction 0.707107 -6.34898e-011 0.707107   
     length 0.650399   
     axis -90 45 5.69224e-014   XYZ
    dof rx rz
    limits (-45.0 45.0)
           (-45.0 45.0)
  end
  begin
     id 24 
     name rclavicle
     direction -0.988403 0.151789 0.00439714   
     length 3.6942  
     axis 0 0 0   XYZ 
    dof ry rz
    limits (-10.0 20.0)
           (-20.0 0.0)
  end
  begin
     id 25 
     name rhumerus
     direction -1 -4.48978e-011 1.62495e-027  
     length 5.22819   
     axis 180 30 90   XYZ
    dof rx ry rz
    limits (-90.0 60.0)
           (-90.0 90.0)
           (-90.0 90.0)
  end
  begin
     id 26 
     name rradius
     direction -1 -4.48961e-011 3.47796e-027   
     length 3.40764   
     axis 180 30 90   XYZ
    dof rx
    limits (-10.0 170.0)
  end
  begin
     id 27 
     name rwrist
     direction -1 -4.48949e-011 5.89602e-027   
     length 1.70382   
     axis -3.27506e-015 -90 -90   XYZ
    dof ry
    limits (-180.0 0.0)
  end
  begin
     id 28
     name rhand
     direction -1 -4.48977e-011 1.17973e-026   
     length 0.583255   
     axis -7.52654e-015 -90 -90   XYZ
    dof rx rz
    limits (-90.0 90.0)
           (-45.0 45.0)
  end
  begin
     id 29
     name rfingers
     direction -1 -4.49099e-011 2.36408e-026   
     length 0.470235   
     axis -1.50534e-014 -90 -90   XYZ
    dof rx
    limits (0.0 90.0)
  end
  begin
     id 30
     name rthumb
     direction -0.707107 -6.35011e-011 0.707107   
     length 0.675167   
     axis -90 -45 -5.69224e-014   XYZ
    dof rx rz
    limits (-45.0 45.0)
           (-45.0 45.0)
  end
:hierarchy
  begin
    root lhipjoint rhipjoint lowerback
    lhipjoint lfemur
    lfemur ltibia
    ltibia lfoot
    lfoot ltoes
    rhipjoint rfemur
    rfemur rtibia
    rtibia rfoot
    rfoot rtoes
    lowerback upperback
    upperback thorax
    thorax lowerneck lclavicle rclavicle
    lowerneck upperneck
    upperneck head
    lclavicle lhumerus
    lhumerus lradius
    lradius lwrist
    lwrist lhand lthumb
    lhand lfingers
    rclavicle rhumerus
    rhumerus rradius
    rradius rwrist
    rwrist rhand rthumb
    rhand rfingers
  end

#!OML:ASF G:\JayActor3\Patient Classification 1\Patient 1\Session 2\male.ASF
:FULLY-SPECIFIED
:DEGREES
656
root 26.1606 17.1426 -5.68486 116.656 -86.1214 -116.877
lowerback -1.89379 -0.432149 -0.379647
upperback -2.60682 -0.597512 1.08276
thorax -1.59419 -0.296997 1.31994
lowerneck -4.98814 -1.05507 -2.4897
upperneck 8.04442 -1.97802 7.626
head 3.65679 -0.794177 2.91376
rclavicle 4.74598e-015 3.37934e-015
rhumerus -32.6179 -0.174041 -80.4791
rradius 42.2089
rwrist 4.34774
rhand -21.4287 0.642105
rfingers 7.12502
rthumb 4.9604 -29.2798
lclavicle 4.74598e-015 3.37934e-015
lhumerus -21.8578 -4.71681 76.9565
lradius 46.4729
lwrist 12.9468
lhand -15.9018 21.0565
lfingers 7.12502
lthumb 10.2949 50.7845
rfemur -8.23103 -2.13924 16.2676
rtibia 57.517
rfoot 7.77784 -9.648
rtoes 21.4501
lfemur 0.119509 5.85521 -17.3758
ltibia 13.0764
lfoot -8.10399 7.82966
ltoes -1.75066
657
root 26.102 17.1415 -5.65953 118.88 -86.1283 -119.183
lowerback -1.7576 -0.492009 -0.643987
upperback -2.58202 -0.674584 1.04208
thorax -1.64076 -0.330427 1.42726
lowerneck -4.97865 -1.11672 -2.56128
upperneck 7.99469 -2.0607 7.7119
head 3.64612 -0.835415 2.95254
rclavicle 4.82053e-015 3.97569e-015
rhumerus -32.582 -0.140493 -80.4957
rradius 42.2772
rwrist 4.33298
rhand -21.4365 0.657014
rfingers 7.12502
rthumb 4.95286 -29.2651
lclavicle 4.82053e-015 3.97569e-015
lhumerus -21.7304 -4.80228 76.9949
lradius 46.562
lwrist 12.9742
lhand -15.9069 21.073
lfingers 7.12502
lthumb 10.2899 50.8013
rfemur -9.33367 -2.40098 15.9688
rtibia 59.1306
rfoot 8.97535 -10.4153
rtoes 22.0707
lfemur 0.858788 5.89365 -17.5395
ltibia 12.3152
lfoot -8.00111 7.94781
ltoes -1.84189
658
root 26.0439 17.1401 -5.6352 120.93 -86.1443 -121.327
lowerback -1.60964 -0.553523 -0.909189
upperback -2.55489 -0.754745 0.996965
thorax -1.69097 -0.365323 1.53091
lowerneck -4.95019 -1.17928 -2.63264
upperneck 7.92683 -2.14323 7.79558
head 3.6255 -0.877287 2.99014
rclavicle -3.03147e-015 -8.34896e-015
rhumerus -32.5473 -0.0995041 -80.5174
rradius 42.3424
rwrist 4.30244
rhand -21.4323 0.667486
rfingers 7.12502
rthumb 4.95693 -29.2545
lclavicle -3.03147e-015 -8.34896e-015
lhumerus -21.6009 -4.89297 77.0335
lradius 46.6375
lwrist 12.9941
lhand -15.9105 21.0873
lfingers 7.12502
lthumb 10.2865 50.8158
rfemur -10.4162 -2.69466 15.687
rtibia 60.6853
rfoot 9.86142 -11.1075
rtoes 22.4321
lfemur 1.64229 5.8888 -17.7124
ltibia 11.4987
lfoot -7.89467 8.09127
ltoes -1.82918
659
root 25.9859 17.1383 -5.61175 122.814 -86.1589 -123.314
lowerback -1.45554 -0.613838 -1.16258
upperback -2.52377 -0.83429 0.950159
thorax -1.7402 -0.400086 1.62654
lowerneck -4.91294 -1.24504 -2.69928
upperneck 7.84887 -2.22879 7.86947
head 3.59965 -0.921163 3.02311
rclavicle 2.23633e-016 -5.1684e-015
rhumerus -32.5096 -0.0521192 -80.5424
rradius 42.4012
rwrist 4.26056
rhand -21.4188 0.676927
rfingers 7.12502
rthumb 4.96998 -29.2448
lclavicle 2.23633e-016 -5.1684e-015
lhumerus -21.4633 -4.98377 77.0732
lradius 46.6916
lwrist 13.001
lhand -15.9078 21.0762
lfingers 7.12502
lthumb 10.2891 50.8045
rfemur -11.4725 -3.01899 15.4342
rtibia 62.1729
rfoot 10.3441 -11.6102
rtoes 22.4924
lfemur 2.46698 5.83851 -17.8852
ltibia 10.6306
lfoot -7.7836 8.2681
ltoes -1.71767
660
root 25.9279 17.1363 -5.58904 124.479 -86.165 -125.088
lowerback -1.30343 -0.673165 -1.39324
upperback -2.48889 -0.91342 0.904958
thorax -1.78426 -0.435065 1.71129
lowerneck -4.87628 -1.31062 -2.76534
upperneck 7.77474 -2.31364 7.93603
head 3.57519 -0.964867 3.05357
rclavicle -3.15571e-015 -6.36111e-015
rhumerus -32.4679 -0.00147813 -80.5683
rradius 42.4496
rwrist 4.21426
rhand -21.4022 0.681101
rfingers 7.12502
rthumb 4.98602 -29.2402
lclavicle -3.15571e-015 -6.36111e-015
lhumerus -21.3204 -5.06874 77.1156
lradius 46.7239
lwrist 12.9995
lhand -15.9097 21.0412
lfingers 7.12502
lthumb 10.2873 50.7697
rfemur -12.5 -3.37189 15.2212
rtibia 63.5845
rfoot 10.3678 -11.8533
rtoes 22.2978
lfemur 3.32141 5.99416 -18.0342
ltibia 9.72759
lfoot -7.64297 8.23324
ltoes -1.54282
661
root 25.8696 17.1342 -5.56698 125.904 -86.1514 -126.621
lowerback -1.16158 -0.728443 -1.58848
upperback -2.4511 -0.987815 0.863692
thorax -1.81981 -0.468392 1.7803
lowerneck -4.84721 -1.37559 -2.82815
upperneck 7.71088 -2.39775 7.99423
head 3.5556 -1.00809 3.08079
rclavicle -1.02374e-014 7.55382e-015
rhumerus -32.4219 0.0475902 -80.5938
rradius 42.4843
rwrist 4.1713
rhand -21.3848 0.687748
rfingers 7.12502
rthumb 5.00276 -29.2332
lclavicle -1.02374e-014 7.55382e-015
lhumerus -21.1694 -5.1425 77.1624
lradius 46.7318
lwrist 12.9867
lhand -15.9026 20.9969
lfingers 7.12502
lthumb 10.2942 50.725
rfemur -13.504 -3.74259 15.0623
rtibia 64.9093
rfoot 9.97973 -11.827
rtoes 21.8643
lfemur 4.18003 6.14616 -18.1531
ltibia 8.81722
lfoot -7.49008 8.20031
ltoes -1.3886
662
root 25.8114 17.132 -5.54551 127.14 -86.1108 -127.957
lowerback -1.03614 -0.778245 -1.7437
upperback -2.41253 -1.05525 0.828322
thorax -1.84583 -0.49907 1.83284
lowerneck -4.83324 -1.43721 -2.89557
upperneck 7.66845 -2.47868 8.05546
head 3.54656 -1.04918 3.1106
rclavicle 1.04362e-014 9.54166e-015
rhumerus -32.3728 0.0941787 -80.6179
rradius 42.5065
rwrist 4.13578
rhand -21.3682 0.695124
rfingers 7.12502
rthumb 5.01883 -29.2254
lclavicle 1.04362e-014 9.54166e-015
lhumerus -21.0168 -5.20607 77.2148
lradius 46.7192
lwrist 12.9714
lhand -15.8998 20.9396
lfingers 7.12502
lthumb 10.2968 50.6675
rfemur -14.4918 -4.11795 14.9631
rtibia 66.1381
rfoot 9.25952 -11.596
rtoes 21.3482
lfemur 5.01867 6.30814 -18.2364
ltibia 7.93116
lfoot -7.33495 8.16204
ltoes -1.2563
663
root 25.7531 17.1298 -5.52463 128.234 -86.0384 -129.134
lowerback -0.933989 -0.820789 -1.85781
upperback -2.37679 -1.11305 0.799913
thorax -1.86246 -0.525791 1.86923
lowerneck -4.82983 -1.49601 -2.96344
upperneck 7.64192 -2.55667 8.11495
head 3.54503 -1.08846 3.14038
rclavicle 7.70291e-015 -7.15625e-015
rhumerus -32.3226 0.137732 -80.6394
rradius 42.5143
rwrist 4.10925
rhand -21.354 0.709995
rfingers 7.12502
rthumb 5.0325 -29.2102
lclavicle 7.70291e-015 -7.15625e-015
lhumerus -20.8664 -5.25833 77.2749
lradius 46.69
lwrist 12.9558
lhand -15.9055 20.8895
lfingers 7.12502
lthumb 10.2914 50.6177
rfemur -15.4754 -4.48652 14.9274
rtibia 67.2619
rfoot 8.33608 -11.2563
rtoes 20.8137
lfemur 5.80766 6.48011 -18.2829
ltibia 7.10478
lfoot -7.18084 8.12781
ltoes -1.23682
664
root 25.6952 17.1277 -5.50425 129.199 -85.9312 -130.165
lowerback -0.850481 -0.855548 -1.92945
upperback -2.34818 -1.1604 0.78024
thorax -1.87686 -0.548058 1.89059
lowerneck -4.83725 -1.55153 -3.03023
upperneck 7.63236 -2.63117 8.17118
head 3.55129 -1.12564 3.16933
rclavicle 7.85199e-015 -8.74653e-015
rhumerus -32.2752 0.180636 -80.6567
rradius 42.51
rwrist 4.09079
rhand -21.3347 0.727604
rfingers 7.12502
rthumb 5.05119 -29.1922
lclavicle 7.85199e-015 -8.74653e-015
lhumerus -20.7274 -5.29952 77.3451
lradius 46.6508
lwrist 12.943
lhand -15.928 20.8611
lfingers 7.12502
lthumb 10.2696 50.5904
rfemur -16.464 -4.84009 14.9581
rtibia 68.2768
rfoot 7.32348 -10.8961
rtoes 20.2141
lfemur 6.52572 6.66801 -18.2919
ltibia 6.37488
lfoot -7.05986 8.08883
ltoes -1.22291
665
root 25.6375 17.1258 -5.48453 130.128 -85.7931 -131.135
lowerback -0.787419 -0.882679 -1.97039
upperback -2.3285 -1.1974 0.768213
thorax -1.88979 -0.565702 1.90233
lowerneck -4.85396 -1.60576 -3.08986
upperneck 7.63501 -2.70449 8.21894
head 3.56325 -1.16193 3.19424
rclavicle 5.41688e-015 6.36111e-015
rhumerus -32.2335 0.226643 -80.6709
rradius 42.4984
rwrist 4.07718
rhand -21.3128 0.748785
rfingers 7.12502
rthumb 5.07233 -29.1705
lclavicle 5.41688e-015 6.36111e-015
lhumerus -20.606 -5.33016 77.4249
lradius 46.6081
lwrist 12.9332
lhand -15.9703 20.8592
lfingers 7.12502
lthumb 10.2288 50.5905
rfemur -17.4625 -5.17369 15.0479
rtibia 69.1817
rfoot 6.2778 -10.562
rtoes 19.6081
lfemur 7.15218 6.87512 -18.2729
ltibia 5.77138
lfoot -6.98483 8.04724
ltoes -1.21028
666
root 25.58 17.1238 -5.46565 130.943 -85.6379 -131.973
lowerback -0.740266 -0.907075 -1.99049
upperback -2.31814 -1.23063 0.762798
thorax -1.90379 -0.581783 1.90901
lowerneck -4.87579 -1.65896 -3.14735
upperneck 7.64554 -2.77677 8.26283
head 3.57882 -1.19756 3.21756
rclavicle 8.94531e-015 -3.97569e-015
rhumerus -32.2019 0.279045 -80.6818
rradius 42.4831
rwrist 4.06752
rhand -21.2892 0.769415
rfingers 7.12502
rthumb 5.09508 -29.1493
lclavicle 8.94531e-015 -3.97569e-015
lhumerus -20.5097 -5.35095 77.5149
lradius 46.5682
lwrist 12.9275
lhand -16.0362 20.8758
lfingers 7.12502
lthumb 10.1652 50.6102
rfemur -18.46 -5.49871 15.1884
rtibia 69.9771
rfoot 5.21509 -10.2614
rtoes 19.0001
lfemur 7.67944 7.08889 -18.235
ltibia 5.31235
lfoot -6.9632 8.00541
ltoes -1.21778
